<mxfile host="app.diagrams.net" agent="Mozilla/5.0 (Windows NT 10.0; Win64; x64) AppleWebKit/537.36 (KHTML, like Gecko) Chrome/136.0.0.0 Safari/537.36" version="27.0.2">
  <diagram name="Page-1" id="J3hV0z_-zYhX4EZDe8K3">
    <mxGraphModel dx="6753" dy="3963" grid="1" gridSize="10" guides="1" tooltips="1" connect="1" arrows="1" fold="1" page="0" pageScale="1" pageWidth="850" pageHeight="1100" math="0" shadow="0">
      <root>
        <mxCell id="0" />
        <mxCell id="1" parent="0" />
        <mxCell id="Pk8gAzI5pZvPVso7He5D-1" value="" style="group;fontFamily=Verdana;" vertex="1" connectable="0" parent="1">
          <mxGeometry x="-1730" y="-650" width="3380" height="2658.63" as="geometry" />
        </mxCell>
        <mxCell id="qH5x3utSdqsIQXP25AVT-21" style="edgeStyle=none;curved=1;rounded=0;orthogonalLoop=1;jettySize=auto;html=1;exitX=0.5;exitY=1;exitDx=0;exitDy=0;fontSize=12;startSize=8;endSize=8;" parent="Pk8gAzI5pZvPVso7He5D-1" source="qH5x3utSdqsIQXP25AVT-1" target="qH5x3utSdqsIQXP25AVT-2" edge="1">
          <mxGeometry relative="1" as="geometry" />
        </mxCell>
        <mxCell id="qH5x3utSdqsIQXP25AVT-1" value="&lt;font face=&quot;Verdana&quot; style=&quot;font-size: 36px;&quot;&gt;Paparan Asap Rokok&lt;/font&gt;" style="rounded=0;whiteSpace=wrap;html=1;" parent="Pk8gAzI5pZvPVso7He5D-1" vertex="1">
          <mxGeometry x="1303.39" y="11" width="359.56" height="125.51" as="geometry" />
        </mxCell>
        <mxCell id="qH5x3utSdqsIQXP25AVT-42" style="edgeStyle=orthogonalEdgeStyle;rounded=0;orthogonalLoop=1;jettySize=auto;html=1;exitX=0;exitY=0.5;exitDx=0;exitDy=0;entryX=0;entryY=0.5;entryDx=0;entryDy=0;fontSize=12;startSize=8;endSize=8;" parent="Pk8gAzI5pZvPVso7He5D-1" source="qH5x3utSdqsIQXP25AVT-2" target="qH5x3utSdqsIQXP25AVT-12" edge="1">
          <mxGeometry relative="1" as="geometry">
            <Array as="points">
              <mxPoint x="951.9727908745247" y="527.1241227380015" />
              <mxPoint x="951.9727908745247" y="2595.877128245476" />
            </Array>
          </mxGeometry>
        </mxCell>
        <mxCell id="qH5x3utSdqsIQXP25AVT-2" value="&lt;font face=&quot;Verdana&quot; style=&quot;font-size: 36px;&quot;&gt;Pola hidup tidak sehat&lt;/font&gt;" style="rounded=0;whiteSpace=wrap;html=1;" parent="Pk8gAzI5pZvPVso7He5D-1" vertex="1">
          <mxGeometry x="1266.75" y="461" width="432.85" height="125.51" as="geometry" />
        </mxCell>
        <mxCell id="qH5x3utSdqsIQXP25AVT-22" style="edgeStyle=none;curved=1;rounded=0;orthogonalLoop=1;jettySize=auto;html=1;exitX=0.5;exitY=0;exitDx=0;exitDy=0;fontSize=12;startSize=8;endSize=8;" parent="Pk8gAzI5pZvPVso7He5D-1" source="qH5x3utSdqsIQXP25AVT-3" target="qH5x3utSdqsIQXP25AVT-2" edge="1">
          <mxGeometry relative="1" as="geometry" />
        </mxCell>
        <mxCell id="qH5x3utSdqsIQXP25AVT-26" style="edgeStyle=none;curved=1;rounded=0;orthogonalLoop=1;jettySize=auto;html=1;entryX=1;entryY=0.5;entryDx=0;entryDy=0;fontSize=12;startSize=8;endSize=8;" parent="Pk8gAzI5pZvPVso7He5D-1" source="qH5x3utSdqsIQXP25AVT-3" target="qH5x3utSdqsIQXP25AVT-4" edge="1">
          <mxGeometry relative="1" as="geometry" />
        </mxCell>
        <mxCell id="qH5x3utSdqsIQXP25AVT-28" style="edgeStyle=none;curved=1;rounded=0;orthogonalLoop=1;jettySize=auto;html=1;exitX=0.5;exitY=1;exitDx=0;exitDy=0;fontSize=12;startSize=8;endSize=8;" parent="Pk8gAzI5pZvPVso7He5D-1" source="qH5x3utSdqsIQXP25AVT-3" target="qH5x3utSdqsIQXP25AVT-9" edge="1">
          <mxGeometry relative="1" as="geometry" />
        </mxCell>
        <mxCell id="qH5x3utSdqsIQXP25AVT-3" value="&lt;font face=&quot;Verdana&quot; style=&quot;font-size: 36px;&quot;&gt;Merokok&lt;/font&gt;" style="rounded=0;whiteSpace=wrap;html=1;" parent="Pk8gAzI5pZvPVso7He5D-1" vertex="1">
          <mxGeometry x="1340.4352395437263" y="888.9990165224232" width="287.7499619771863" height="125.50574350904799" as="geometry" />
        </mxCell>
        <mxCell id="qH5x3utSdqsIQXP25AVT-4" value="&lt;font face=&quot;Verdana&quot; style=&quot;font-size: 36px;&quot;&gt;Status gizi&lt;/font&gt;" style="rounded=0;whiteSpace=wrap;html=1;" parent="Pk8gAzI5pZvPVso7He5D-1" vertex="1">
          <mxGeometry x="808.0978098859316" y="888.9990165224232" width="287.7499619771863" height="125.50574350904799" as="geometry" />
        </mxCell>
        <mxCell id="qH5x3utSdqsIQXP25AVT-5" value="Faktor lainnya" style="swimlane;fontStyle=0;childLayout=stackLayout;horizontal=1;startSize=56;horizontalStack=0;resizeParent=1;resizeParentMax=0;resizeLast=0;collapsible=1;marginBottom=0;align=center;fontSize=36;fontFamily=Verdana;" parent="Pk8gAzI5pZvPVso7He5D-1" vertex="1">
          <mxGeometry y="914.1001652242327" width="486.7770190114069" height="307.011487018096" as="geometry" />
        </mxCell>
        <mxCell id="qH5x3utSdqsIQXP25AVT-6" value="&lt;font face=&quot;Verdana&quot; style=&quot;font-size: 36px;&quot;&gt;- Aktivitas fisik&lt;/font&gt;" style="text;strokeColor=none;fillColor=none;spacingLeft=4;spacingRight=4;overflow=hidden;rotatable=0;points=[[0,0.5],[1,0.5]];portConstraint=eastwest;fontSize=12;whiteSpace=wrap;html=1;" parent="qH5x3utSdqsIQXP25AVT-5" vertex="1">
          <mxGeometry y="56" width="486.7770190114069" height="62.752871754523994" as="geometry" />
        </mxCell>
        <mxCell id="qH5x3utSdqsIQXP25AVT-7" value="&lt;font face=&quot;Verdana&quot; style=&quot;font-size: 36px;&quot;&gt;- Konsumsi alkohol&lt;/font&gt;" style="text;strokeColor=none;fillColor=none;spacingLeft=4;spacingRight=4;overflow=hidden;rotatable=0;points=[[0,0.5],[1,0.5]];portConstraint=eastwest;fontSize=12;whiteSpace=wrap;html=1;" parent="qH5x3utSdqsIQXP25AVT-5" vertex="1">
          <mxGeometry y="118.752871754524" width="486.7770190114069" height="62.752871754523994" as="geometry" />
        </mxCell>
        <mxCell id="qH5x3utSdqsIQXP25AVT-8" value="&lt;font face=&quot;Verdana&quot; style=&quot;font-size: 36px;&quot;&gt;- Stress&lt;/font&gt;" style="text;strokeColor=none;fillColor=none;spacingLeft=4;spacingRight=4;overflow=hidden;rotatable=0;points=[[0,0.5],[1,0.5]];portConstraint=eastwest;fontSize=12;whiteSpace=wrap;html=1;" parent="qH5x3utSdqsIQXP25AVT-5" vertex="1">
          <mxGeometry y="181.505743509048" width="486.7770190114069" height="62.752871754523994" as="geometry" />
        </mxCell>
        <mxCell id="qH5x3utSdqsIQXP25AVT-19" value="&lt;font face=&quot;Verdana&quot; style=&quot;font-size: 36px;&quot;&gt;- Riwayat penyakit kronis&lt;/font&gt;" style="text;strokeColor=none;fillColor=none;spacingLeft=4;spacingRight=4;overflow=hidden;rotatable=0;points=[[0,0.5],[1,0.5]];portConstraint=eastwest;fontSize=12;whiteSpace=wrap;html=1;" parent="qH5x3utSdqsIQXP25AVT-5" vertex="1">
          <mxGeometry y="244.25861526357198" width="486.7770190114069" height="62.752871754523994" as="geometry" />
        </mxCell>
        <mxCell id="qH5x3utSdqsIQXP25AVT-29" style="edgeStyle=none;curved=1;rounded=0;orthogonalLoop=1;jettySize=auto;html=1;entryX=0.5;entryY=0;entryDx=0;entryDy=0;fontSize=12;startSize=8;endSize=8;" parent="Pk8gAzI5pZvPVso7He5D-1" source="qH5x3utSdqsIQXP25AVT-9" target="qH5x3utSdqsIQXP25AVT-10" edge="1">
          <mxGeometry relative="1" as="geometry" />
        </mxCell>
        <mxCell id="qH5x3utSdqsIQXP25AVT-9" value="&lt;font face=&quot;Verdana&quot; style=&quot;font-size: 36px;&quot;&gt;Penurunan nafsu makan&lt;/font&gt;" style="rounded=0;whiteSpace=wrap;html=1;" parent="Pk8gAzI5pZvPVso7He5D-1" vertex="1">
          <mxGeometry x="1287.15" y="1284.34" width="394.33" height="125.51" as="geometry" />
        </mxCell>
        <mxCell id="qH5x3utSdqsIQXP25AVT-30" style="edgeStyle=none;curved=1;rounded=0;orthogonalLoop=1;jettySize=auto;html=1;exitX=0.5;exitY=1;exitDx=0;exitDy=0;fontSize=12;startSize=8;endSize=8;" parent="Pk8gAzI5pZvPVso7He5D-1" source="qH5x3utSdqsIQXP25AVT-10" edge="1">
          <mxGeometry relative="1" as="geometry">
            <mxPoint x="1484.3102205323191" y="2091.7623918174663" as="targetPoint" />
          </mxGeometry>
        </mxCell>
        <mxCell id="qH5x3utSdqsIQXP25AVT-10" value="&lt;font face=&quot;Verdana&quot; style=&quot;font-size: 36px;&quot;&gt;Gangguan penyerapan zat gizi&lt;/font&gt;" style="rounded=0;whiteSpace=wrap;html=1;" parent="Pk8gAzI5pZvPVso7He5D-1" vertex="1">
          <mxGeometry x="1252.6200000000001" y="1711.06" width="461.1" height="125.51" as="geometry" />
        </mxCell>
        <mxCell id="qH5x3utSdqsIQXP25AVT-31" style="edgeStyle=none;curved=1;rounded=0;orthogonalLoop=1;jettySize=auto;html=1;exitX=0.5;exitY=1;exitDx=0;exitDy=0;fontSize=12;startSize=8;endSize=8;entryX=0.5;entryY=0;entryDx=0;entryDy=0;" parent="Pk8gAzI5pZvPVso7He5D-1" source="qH5x3utSdqsIQXP25AVT-11" edge="1" target="qH5x3utSdqsIQXP25AVT-12">
          <mxGeometry relative="1" as="geometry">
            <mxPoint x="1484.3102205323191" y="2522.6654445318645" as="targetPoint" />
          </mxGeometry>
        </mxCell>
        <mxCell id="qH5x3utSdqsIQXP25AVT-11" value="&lt;font face=&quot;Verdana&quot; style=&quot;font-size: 36px;&quot;&gt;Perubahan metabolisme&lt;/font&gt;" style="rounded=0;whiteSpace=wrap;html=1;" parent="Pk8gAzI5pZvPVso7He5D-1" vertex="1">
          <mxGeometry x="1306.8644106463878" y="2095.9459166011015" width="354.89161977186313" height="125.50574350904799" as="geometry" />
        </mxCell>
        <mxCell id="qH5x3utSdqsIQXP25AVT-12" value="&lt;font face=&quot;Verdana&quot; style=&quot;font-size: 36px;&quot;&gt;Penurunan status gizi&lt;/font&gt;" style="rounded=0;whiteSpace=wrap;html=1;" parent="Pk8gAzI5pZvPVso7He5D-1" vertex="1">
          <mxGeometry x="1265.69" y="2521" width="437.25" height="125.51" as="geometry" />
        </mxCell>
        <mxCell id="qH5x3utSdqsIQXP25AVT-44" style="edgeStyle=orthogonalEdgeStyle;rounded=0;orthogonalLoop=1;jettySize=auto;html=1;entryX=1;entryY=0.5;entryDx=0;entryDy=0;fontSize=12;startSize=8;endSize=8;exitX=0.5;exitY=1;exitDx=0;exitDy=0;" parent="Pk8gAzI5pZvPVso7He5D-1" source="qH5x3utSdqsIQXP25AVT-13" target="qH5x3utSdqsIQXP25AVT-12" edge="1">
          <mxGeometry relative="1" as="geometry" />
        </mxCell>
        <mxCell id="qH5x3utSdqsIQXP25AVT-13" value="&lt;font face=&quot;Verdana&quot; style=&quot;font-size: 36px;&quot;&gt;Pola makan tidak sehat&lt;/font&gt;" style="rounded=0;whiteSpace=wrap;html=1;" parent="Pk8gAzI5pZvPVso7He5D-1" vertex="1">
          <mxGeometry x="1903.95" y="1284.34" width="476.05" height="125.51" as="geometry" />
        </mxCell>
        <mxCell id="qH5x3utSdqsIQXP25AVT-14" value="&lt;font face=&quot;Verdana&quot; style=&quot;font-size: 36px;&quot;&gt;Faktor sosial ekonomi&lt;/font&gt;" style="swimlane;fontStyle=0;childLayout=stackLayout;horizontal=1;startSize=50;horizontalStack=0;resizeParent=1;resizeParentMax=0;resizeLast=0;collapsible=1;marginBottom=0;whiteSpace=wrap;html=1;" parent="Pk8gAzI5pZvPVso7He5D-1" vertex="1">
          <mxGeometry x="2700" y="914.0999999999999" width="680" height="328.998615263572" as="geometry" />
        </mxCell>
        <mxCell id="qH5x3utSdqsIQXP25AVT-15" value="&lt;font face=&quot;Verdana&quot; style=&quot;font-size: 36px;&quot;&gt;- Pendidikan&lt;/font&gt;" style="text;strokeColor=none;fillColor=none;align=left;verticalAlign=middle;spacingLeft=4;spacingRight=4;overflow=hidden;points=[[0,0.5],[1,0.5]];portConstraint=eastwest;rotatable=0;whiteSpace=wrap;html=1;textDirection=ltr;" parent="qH5x3utSdqsIQXP25AVT-14" vertex="1">
          <mxGeometry y="50" width="680" height="62.752871754523994" as="geometry" />
        </mxCell>
        <mxCell id="qH5x3utSdqsIQXP25AVT-16" value="&lt;font face=&quot;Verdana&quot;&gt;- Pendapatan&lt;/font&gt;" style="text;strokeColor=none;fillColor=none;align=left;verticalAlign=middle;spacingLeft=4;spacingRight=4;overflow=hidden;points=[[0,0.5],[1,0.5]];portConstraint=eastwest;rotatable=0;whiteSpace=wrap;html=1;fontSize=36;" parent="qH5x3utSdqsIQXP25AVT-14" vertex="1">
          <mxGeometry y="112.752871754524" width="680" height="62.752871754523994" as="geometry" />
        </mxCell>
        <mxCell id="qH5x3utSdqsIQXP25AVT-17" value="&lt;font face=&quot;Verdana&quot;&gt;- Pekerjaan&lt;/font&gt;" style="text;strokeColor=none;fillColor=none;align=left;verticalAlign=middle;spacingLeft=4;spacingRight=4;overflow=hidden;points=[[0,0.5],[1,0.5]];portConstraint=eastwest;rotatable=0;whiteSpace=wrap;html=1;fontSize=36;" parent="qH5x3utSdqsIQXP25AVT-14" vertex="1">
          <mxGeometry y="175.505743509048" width="680" height="62.752871754523994" as="geometry" />
        </mxCell>
        <mxCell id="qH5x3utSdqsIQXP25AVT-20" value="&lt;font face=&quot;Verdana&quot;&gt;- Akses terhadap makanan bergizi&lt;/font&gt;" style="text;strokeColor=none;fillColor=none;align=left;verticalAlign=middle;spacingLeft=4;spacingRight=4;overflow=hidden;points=[[0,0.5],[1,0.5]];portConstraint=eastwest;rotatable=0;whiteSpace=wrap;html=1;fontSize=36;" parent="qH5x3utSdqsIQXP25AVT-14" vertex="1">
          <mxGeometry y="238.25861526357198" width="680" height="90.74" as="geometry" />
        </mxCell>
        <mxCell id="qH5x3utSdqsIQXP25AVT-27" value="" style="endArrow=classic;html=1;rounded=0;fontSize=12;startSize=8;endSize=8;curved=1;exitX=1;exitY=0.116;exitDx=0;exitDy=0;exitPerimeter=0;entryX=0;entryY=0.5;entryDx=0;entryDy=0;" parent="Pk8gAzI5pZvPVso7He5D-1" source="qH5x3utSdqsIQXP25AVT-5" target="qH5x3utSdqsIQXP25AVT-4" edge="1">
          <mxGeometry width="50" height="50" relative="1" as="geometry">
            <mxPoint x="522.7457642585551" y="947.5683634933122" as="sourcePoint" />
            <mxPoint x="642.6415817490495" y="842.9802439024389" as="targetPoint" />
          </mxGeometry>
        </mxCell>
        <mxCell id="qH5x3utSdqsIQXP25AVT-36" value="" style="endArrow=classic;html=1;rounded=0;fontSize=12;startSize=8;endSize=8;curved=1;entryX=1;entryY=0.5;entryDx=0;entryDy=0;exitX=0.005;exitY=0.107;exitDx=0;exitDy=0;exitPerimeter=0;" parent="Pk8gAzI5pZvPVso7He5D-1" source="qH5x3utSdqsIQXP25AVT-14" target="qH5x3utSdqsIQXP25AVT-3" edge="1">
          <mxGeometry width="50" height="50" relative="1" as="geometry">
            <mxPoint x="2930.2537794676805" y="951.7518882769472" as="sourcePoint" />
            <mxPoint x="2426.691346007605" y="865.989630212431" as="targetPoint" />
          </mxGeometry>
        </mxCell>
        <mxCell id="qH5x3utSdqsIQXP25AVT-40" value="" style="endArrow=classic;html=1;rounded=0;fontSize=12;startSize=8;endSize=8;exitX=0.003;exitY=0.11;exitDx=0;exitDy=0;exitPerimeter=0;entryX=0.5;entryY=0;entryDx=0;entryDy=0;edgeStyle=orthogonalEdgeStyle;" parent="Pk8gAzI5pZvPVso7He5D-1" source="qH5x3utSdqsIQXP25AVT-15" target="qH5x3utSdqsIQXP25AVT-13" edge="1">
          <mxGeometry width="50" height="50" relative="1" as="geometry">
            <mxPoint x="2489.0371711026614" y="1158.8363650668764" as="sourcePoint" />
            <mxPoint x="2608.932988593156" y="1054.248245476003" as="targetPoint" />
          </mxGeometry>
        </mxCell>
      </root>
    </mxGraphModel>
  </diagram>
</mxfile>
